<svg xmlns="http://www.w3.org/2000/svg" width="1500" height="420" viewBox="0 0 1500 420" role="img" aria-labelledby="title desc">
  <title id="title">Video Rotation Saver installer banner</title>
  <desc id="desc">Installer banner artwork without angle text.</desc>
  <defs>
    <linearGradient id="bg" x1="0" y1="0" x2="1500" y2="420" gradientUnits="userSpaceOnUse">
      <stop offset="0" stop-color="#0b1d33"/>
      <stop offset="0.62" stop-color="#061226"/>
      <stop offset="1" stop-color="#020913"/>
    </linearGradient>
    <linearGradient id="accent" x1="108" y1="82" x2="346" y2="338" gradientUnits="userSpaceOnUse">
      <stop offset="0" stop-color="#00d4ff"/>
      <stop offset="0.52" stop-color="#39a9ff"/>
      <stop offset="1" stop-color="#1565ff"/>
    </linearGradient>
  </defs>
  <rect width="1500" height="420" rx="28" fill="url(#bg)"/>
  <path d="M925 382c190-63 332-161 444-312" fill="none" stroke="#1565ff" stroke-width="8" opacity="0.35"/>
  <path d="M1000 390c156-22 291-66 412-132" fill="none" stroke="#00d4ff" stroke-width="5" opacity="0.2"/>
  <g transform="translate(72 42) scale(.33)">
    <path d="M298 676a278 278 0 0 0 315 83 278 278 0 0 0 149-110" fill="none" stroke="#1565ff" stroke-width="64" stroke-linecap="round"/>
    <path d="M750 619l50 121-132-19z" fill="#1565ff"/>
    <path d="M732 354a278 278 0 0 0-315-83 278 278 0 0 0-149 110" fill="none" stroke="url(#accent)" stroke-width="64" stroke-linecap="round"/>
    <path d="M280 411l-50-121 132 19z" fill="#00d4ff"/>
    <path d="M368 355h288c39 0 71 32 71 71v172c0 39-32 71-71 71H368c-39 0-71-32-71-71V426c0-39 32-71 71-71z" fill="#ffffff"/>
    <path d="M392 407h240c22 0 40 18 40 40v130c0 22-18 40-40 40H392c-22 0-40-18-40-40V447c0-22 18-40 40-40z" fill="#07162c"/>
    <path d="M481 454l109 63-109 63z" fill="#ffffff"/>
  </g>
  <text x="405" y="140" fill="#ffffff" font-family="Segoe UI, Arial, sans-serif" font-size="62" font-weight="800" letter-spacing="0">VIDEO</text>
  <text x="405" y="212" fill="#39a9ff" font-family="Segoe UI, Arial, sans-serif" font-size="62" font-weight="800" letter-spacing="0">ROTATION</text>
  <text x="405" y="284" fill="#ffffff" font-family="Segoe UI, Arial, sans-serif" font-size="62" font-weight="800" letter-spacing="0">SAVER</text>
  <g transform="translate(1122 92) rotate(7)">
    <rect x="0" y="0" width="260" height="160" rx="18" fill="none" stroke="#39a9ff" stroke-width="18" opacity="0.8"/>
    <path d="M100 44l82 46-82 46z" fill="#00d4ff"/>
    <rect x="-54" y="20" width="36" height="26" fill="#39a9ff" opacity="0.75"/>
    <rect x="-54" y="66" width="36" height="26" fill="#39a9ff" opacity="0.75"/>
    <rect x="-54" y="112" width="36" height="26" fill="#39a9ff" opacity="0.75"/>
    <rect x="278" y="20" width="36" height="26" fill="#39a9ff" opacity="0.75"/>
    <rect x="278" y="66" width="36" height="26" fill="#39a9ff" opacity="0.75"/>
    <rect x="278" y="112" width="36" height="26" fill="#39a9ff" opacity="0.75"/>
  </g>
</svg>
