<svg xmlns="http://www.w3.org/2000/svg" width="1200" height="1600" viewBox="0 0 1200 1600" role="img" aria-labelledby="title desc">
  <title id="title">Video Rotation Saver splash screen</title>
  <desc id="desc">Splash screen artwork without angle text.</desc>
  <defs>
    <linearGradient id="bg" x1="120" y1="60" x2="1080" y2="1540" gradientUnits="userSpaceOnUse">
      <stop offset="0" stop-color="#0b1d33"/>
      <stop offset="0.58" stop-color="#061226"/>
      <stop offset="1" stop-color="#020913"/>
    </linearGradient>
    <linearGradient id="accent" x1="330" y1="280" x2="875" y2="865" gradientUnits="userSpaceOnUse">
      <stop offset="0" stop-color="#00d4ff"/>
      <stop offset="0.52" stop-color="#39a9ff"/>
      <stop offset="1" stop-color="#1565ff"/>
    </linearGradient>
  </defs>
  <rect width="1200" height="1600" rx="56" fill="url(#bg)"/>
  <circle cx="600" cy="560" r="430" fill="none" stroke="#1565ff" stroke-width="3" opacity="0.25"/>
  <circle cx="600" cy="560" r="330" fill="none" stroke="#00d4ff" stroke-width="3" opacity="0.16"/>
  <g transform="translate(222 180) scale(.74)">
    <path d="M298 676a278 278 0 0 0 315 83 278 278 0 0 0 149-110" fill="none" stroke="#1565ff" stroke-width="64" stroke-linecap="round"/>
    <path d="M750 619l50 121-132-19z" fill="#1565ff"/>
    <path d="M732 354a278 278 0 0 0-315-83 278 278 0 0 0-149 110" fill="none" stroke="url(#accent)" stroke-width="64" stroke-linecap="round"/>
    <path d="M280 411l-50-121 132 19z" fill="#00d4ff"/>
    <path d="M368 355h288c39 0 71 32 71 71v172c0 39-32 71-71 71H368c-39 0-71-32-71-71V426c0-39 32-71 71-71z" fill="#ffffff"/>
    <path d="M392 407h240c22 0 40 18 40 40v130c0 22-18 40-40 40H392c-22 0-40-18-40-40V447c0-22 18-40 40-40z" fill="#07162c"/>
    <path d="M481 454l109 63-109 63z" fill="#ffffff"/>
  </g>
  <text x="600" y="1030" fill="#ffffff" font-family="Segoe UI, Arial, sans-serif" font-size="92" font-weight="800" text-anchor="middle" letter-spacing="0">VIDEO</text>
  <text x="600" y="1140" fill="#39a9ff" font-family="Segoe UI, Arial, sans-serif" font-size="92" font-weight="800" text-anchor="middle" letter-spacing="0">ROTATION</text>
  <text x="600" y="1250" fill="#ffffff" font-family="Segoe UI, Arial, sans-serif" font-size="92" font-weight="800" text-anchor="middle" letter-spacing="0">SAVER</text>
  <circle cx="546" cy="1370" r="16" fill="#39a9ff"/>
  <circle cx="600" cy="1370" r="16" fill="#1565ff"/>
  <circle cx="654" cy="1370" r="16" fill="#0d4aa6"/>
  <text x="600" y="1452" fill="#e6f0ff" font-family="Segoe UI, Arial, sans-serif" font-size="32" font-weight="400" text-anchor="middle">Detecting PotPlayer...</text>
</svg>
